<svg width="16" height="16" viewBox="0 0 16 16" fill="none" xmlns="http://www.w3.org/2000/svg">
<path d="M3.70096 6.99385L4.40626 6.26336L6.64645 8.50355L7.5 9.35711V8.15V0.5H8.5V8.15V9.35711L9.35355 8.50355L11.5937 6.26336L12.299 6.99385L8 11.2929L3.70096 6.99385ZM0.5 13.9997V11.5H1.5V14V14.5H2H14H14.5V14V11.5H15.5V14C15.5 14.4165 15.3576 14.7607 15.0591 15.0597C14.7611 15.3583 14.4174 15.5005 14.0006 15.5H14H2C1.58354 15.5 1.23978 15.3577 0.941553 15.0594C0.643378 14.7613 0.500569 14.4171 0.5 13.9997Z" fill="#4356FF" stroke="#4356FF"/>
</svg>
